<svg xmlns="http://www.w3.org/2000/svg" xmlns:xlink="http://www.w3.org/1999/xlink" width="48" height="48" viewBox="0 0 48 48">
    <g transform="scale(2 2)">
        <path d="M 1.495 17.754 A 11.981 11.981 90 0 1 10.92 0.08 V 0.187 A 8.674 8.674 90 0 0 5.148 14.071 Z M 2.44 19.202 A 11.981 11.981 90 0 0 9.184 23.689 V 16.951 A 8.674 8.674 90 0 1 6.334 15.298 Z M 10.7 16.068 A 7.332 7.332 90 1 1 13.3 16.068 V 23.944 A 11.981 11.981 90 0 1 10.7 23.944 Z M 21.56 19.202 A 11.981 11.981 90 0 1 14.816 23.689 V 16.951 A 8.674 8.674 90 0 0 17.666 15.298 Z M 18.876 14.071 A 8.674 8.674 90 0 0 13.104 0.187 V 0.08 A 11.981 11.981 90 0 1 22.53 17.754 Z"
              fill="#0079d7" />
    </g>
</svg>