<svg
    xmlns="http://www.w3.org/2000/svg"
    xmlns:xlink="http://www.w3.org/1999/xlink" width="1000" height="1000" style="">
    <rect id="backgroundrect" width="100%" height="100%" x="0" y="0" fill="none" stroke="none" style="" class=""/>
    <g class="currentLayer" style="">
        <title>Layer 1</title>
        <g id="svgg" class="" fill-opacity="1" fill="#008cd7">
            <path id="path0" d="M464.9073486328125,16.02020835876465 C258.00335693359375,30.70737075805664 80.68719482421875,178.69732666015625 29.675601959228516,379.2687072753906 C-42.769859313964844,664.1151123046875 148.59591674804688,945.1817016601562 440.4784851074219,982.6337890625 C447.1617126464844,983.492431640625 453.44866943359375,984.1935424804688 454.449462890625,984.1935424804688 C456.1920166015625,984.1935424804688 456.270751953125,977.6525268554688 456.270751953125,832.9978637695312 L456.270751953125,681.7998046875 L444.8400573730469,679.9835205078125 C231.5779571533203,646.0875854492188 115.32230377197266,406.2249450683594 220.72134399414062,217.5745391845703 C340.7568054199219,2.727471351623535 650.0217895507812,2.727471351623535 770.0572509765625,217.5745391845703 C875.375,406.08013916015625 759.7213134765625,645.2137451171875 546.4466552734375,679.925048828125 L535.5238647460938,681.703125 L535.5238647460938,833.4652709960938 L535.5238647460938,985.227294921875 L541.3662719726562,984.6253662109375 C773.7151489257812,960.6943969726562 951.8339233398438,790.2774047851562 981.5156860351562,563.4992065429688 C1021.3302001953125,259.3119201660156 771.23828125,-5.721089124679565 464.9073486328125,16.02020835876465 M471.0036926269531,100.3460464477539 C244.88079833984375,121.85104370117188 145.21498107910156,398.9295959472656 305.8270263671875,559.5440673828125 C474.7250061035156,728.4422607421875 765.6627197265625,607.8631591796875 765.6627197265625,368.9658203125 C765.6627197265625,210.8355255126953 628.07470703125,85.40474700927734 471.0036926269531,100.3460464477539 " stroke="none" fill="#008cd7" fill-rule="evenodd"/>
        </g>
    </g>
</svg>